<svg width="13" height="20" viewBox="0 0 13 20" fill="none" xmlns="http://www.w3.org/2000/svg">
<path d="M9.06256 7.67857H12.3036C12.5983 7.67857 12.8527 7.44643 12.8572 7.15179C12.8617 6.85268 12.6206 6.60714 12.3215 6.60714H9.06256C8.76345 6.60714 8.52238 6.36161 8.52685 6.0625C8.53131 5.76786 8.78577 5.53571 9.08042 5.53571H12.4956C12.6965 5.53571 12.8617 5.37054 12.8527 5.16964C12.7768 3.04911 11.4599 1.23661 9.6072 0.4375C9.3706 0.33482 9.1072 0.50893 9.1072 0.763393V2.34821C9.1072 2.64286 8.87506 2.89732 8.58042 2.90179C8.28131 2.90625 8.03577 2.66518 8.03577 2.36607V0.535713C8.03577 0.24107 7.7947 0 7.50006 0C7.20542 0 6.96435 0.24107 6.96435 0.535713V3.0625C6.96435 3.35714 6.7322 3.61161 6.43756 3.61607C6.13845 3.62054 5.89292 3.37946 5.89292 3.08036V0.535713C5.89292 0.24107 5.65185 0 5.3572 0C5.06256 0 4.82149 0.24107 4.82149 0.535713V2.34821C4.82149 2.64286 4.58935 2.89732 4.2947 2.90179C3.9956 2.90625 3.75006 2.66518 3.75006 2.36607V0.763393C3.75006 0.504463 3.48667 0.33482 3.25006 0.4375C1.39738 1.23661 0.0759582 3.05357 0.00452418 5.16964C-0.00440221 5.37054 0.160774 5.53571 0.361671 5.53571H3.77685C4.0715 5.53571 4.32596 5.76786 4.33042 6.0625C4.33488 6.36161 4.09381 6.60714 3.7947 6.60714H0.553635C0.258987 6.60714 0.00452418 6.83929 6.09881e-05 7.13393C-0.00440221 7.43304 0.236671 7.67857 0.535774 7.67857H3.77685C4.07149 7.67857 4.32595 7.91071 4.33042 8.20536C4.33488 8.50446 4.09381 8.75 3.7947 8.75H0.553635C0.258987 8.75 0.00452418 8.98214 6.09881e-05 9.27679C-0.00440221 9.57589 0.236671 9.82143 0.535774 9.82143H3.77685C4.07149 9.82143 4.32595 10.0536 4.33042 10.3482C4.33488 10.6473 4.09381 10.8929 3.7947 10.8929H0.361671C0.160774 10.8929 -0.00440221 11.058 0.00452418 11.2589C0.0268478 11.8661 0.151848 12.4509 0.357201 12.9911C0.410774 13.1295 0.544701 13.2143 0.687561 13.2143H12.1652C12.3126 13.2143 12.4465 13.125 12.4956 12.9911C12.7054 12.4509 12.8304 11.8661 12.8483 11.2589C12.8572 11.058 12.692 10.8929 12.4911 10.8929H9.07595C8.78131 10.8929 8.52685 10.6607 8.52238 10.3661C8.51792 10.067 8.75899 9.82143 9.0581 9.82143H12.2992C12.5938 9.82143 12.8483 9.58929 12.8527 9.29464C12.8572 8.99554 12.6161 8.75 12.317 8.75H9.07595C8.78131 8.75 8.52685 8.51786 8.52238 8.22321C8.52238 7.92411 8.76345 7.67857 9.06256 7.67857ZM1.31702 14.5804C2.16524 15.5625 3.33488 16.2411 4.6831 16.4018C4.86167 16.4241 5.00006 16.5759 5.00006 16.7545V18.5714C5.00006 19.3616 5.63845 20 6.42863 20C7.21881 20 7.8572 19.3616 7.8572 18.5714V16.7545C7.8572 16.5714 7.9956 16.4196 8.17417 16.4018C9.52685 16.2455 10.692 15.567 11.5402 14.5804C11.6385 14.4643 11.5536 14.2857 11.4018 14.2857H1.45095C1.29917 14.2857 1.21881 14.4643 1.31702 14.5804Z" fill="url(#paint0_linear_1_380)"/>
<defs>
<linearGradient id="paint0_linear_1_380" x1="3.21432" y1="5" x2="3.21432" y2="5" gradientUnits="userSpaceOnUse">
<stop offset="1" stop-color="#FF6A00"/>
<stop stop-color="#EE0979"/>
</linearGradient>
</defs>
</svg>
