<svg width="22" height="20" viewBox="0 0 22 20" fill="none" xmlns="http://www.w3.org/2000/svg">
<path d="M19.3598 10.7769C18.2827 10.7192 17.3594 11.4117 17.042 12.359H15.1715L13.8058 8.25234C13.7 7.93497 13.4067 7.72338 13.0749 7.72338H13.0604C12.7238 7.72819 12.4305 7.9542 12.3391 8.28119L10.1993 15.7491L9.89886 13.945L7.68431 0.644971C7.6266 0.284322 7.31885 0.0150314 6.95338 0.000604214C6.58792 -0.0138192 6.26574 0.23142 6.17437 0.58246L3.62576 12.359H0.76939C0.346226 12.359 0 12.7052 0 13.1284C0 13.5515 0.346226 13.8978 0.76939 13.8978H4.23166C4.5827 13.8978 4.89526 13.6573 4.97701 13.3159L6.77546 4.55444L9.24232 19.3604C9.30003 19.7163 9.59817 19.9808 9.95883 20H10.0021C10.3435 20 10.6465 19.774 10.7426 19.4422L13.1326 11.0943L13.8875 13.3688C13.9933 13.6814 14.2867 13.8978 14.6185 13.8978H17.0757C17.4075 14.7633 18.249 15.3885 19.2348 15.3885C20.5332 15.3885 21.5815 14.3161 21.543 13.0081C21.5045 11.8156 20.5476 10.8394 19.3598 10.7769Z" fill="#341931"/>
</svg>
