<svg width="28" height="25" viewBox="0 0 28 25" fill="none" xmlns="http://www.w3.org/2000/svg">
    <path
        d="M13.5417 10.7239C12.0521 10.7239 10.8335 11.9302 10.8335 13.4049C10.8335 14.8796 12.0521 16.086 13.5417 16.086C15.0311 16.086 16.2498 14.8797 16.2498 13.4049C16.2498 11.9302 15.0311 10.7239 13.5417 10.7239ZM21.6667 13.4048C21.6667 8.98125 18.0102 5.36192 13.5417 5.36192C9.07311 5.36192 5.41666 8.98125 5.41666 13.4048C5.41666 16.3542 7.04173 18.9678 9.4789 20.3756L10.8335 18.0298C9.20774 17.0912 8.12493 15.4157 8.12493 13.4048C8.12493 10.4559 10.562 8.04297 13.5417 8.04297C16.5215 8.04297 18.9584 10.4559 18.9584 13.4048C18.9584 15.4157 17.8755 17.0912 16.2498 18.0298L17.6044 20.3756C20.0415 18.9678 21.6667 16.3542 21.6667 13.4048ZM13.5417 0C6.09356 0 0 6.03216 0 13.4048C0 18.3649 2.70781 22.6542 6.77083 25L8.12494 22.6542C4.875 20.7776 2.70781 17.3596 2.70781 13.4049C2.70781 7.5069 7.58353 2.68105 13.5417 2.68105C19.4998 2.68105 24.3754 7.5069 24.3754 13.4049C24.3754 17.3596 22.2085 20.8444 18.9584 22.6542L20.3125 25C24.3754 22.6542 27.0833 18.3649 27.0833 13.4048C27.0833 6.03216 20.9898 0 13.5417 0Z"
        fill="currentColor" />
</svg>